<svg width="1920" height="300" viewBox="0 0 1920 300" fill="none" xmlns="http://www.w3.org/2000/svg">
<rect width="1920" height="300" fill="white"/>
<rect width="1920" height="300" fill="url(#paint0_linear_3_2)"/>
<rect x="878" y="82" width="164" height="137" fill="white"/>
<path fill-rule="evenodd" clip-rule="evenodd" d="M1060 180C1060 218.634 1028.63 250 990 250H930C891.366 250 860 218.634 860 180V120C860 81.366 891.366 50 930 50H990C1028.63 50 1060 81.366 1060 120V180ZM984.67 183.344H984.66C982.954 183.344 981.503 182.747 980.309 181.553C979.114 180.358 978.517 178.95 978.517 177.329V119.797C978.517 114.635 976.703 110.24 973.077 106.614C969.468 103.005 965.098 101.192 959.968 101.175C954.837 101.192 950.468 103.005 946.859 106.614C943.232 110.24 941.419 114.635 941.419 119.797V177.329C941.419 178.95 940.822 180.358 939.627 181.553C938.433 182.747 936.982 183.345 935.276 183.345H935.128C933.507 183.345 932.099 182.747 930.904 181.553C929.71 180.358 929.112 178.95 929.112 177.329V119.797C929.112 114.635 927.288 110.24 923.641 106.614C919.993 102.988 915.609 101.174 910.49 101.174C905.327 101.174 900.933 102.988 897.307 106.614C893.68 110.24 891.867 114.635 891.867 119.797V177.329C891.867 178.95 891.27 180.358 890.075 181.553C888.881 182.747 887.43 183.345 885.723 183.345C884.102 183.345 882.694 182.747 881.5 181.553C880.305 180.358 879.708 178.95 879.708 177.329V119.797C879.708 114.208 881.084 109.046 883.836 104.31C886.587 99.5746 890.32 95.8309 895.035 93.079C899.749 90.3273 904.901 88.9514 910.49 88.9514C915.481 88.9514 920.142 90.0606 924.473 92.2791C928.803 94.4976 932.355 97.5481 935.128 101.43C937.986 97.5481 941.581 94.4976 945.911 92.2791C950.241 90.0606 954.902 88.9514 959.894 88.9514H960.042C962.865 88.9514 965.583 89.3062 968.194 90.016L968.284 90.0405C968.988 90.2334 969.682 90.452 970.365 90.6963C971.61 91.1394 972.83 91.667 974.025 92.2791C978.318 94.4786 981.846 97.4957 984.608 101.33L984.682 101.427C987.541 97.5462 991.134 94.497 995.463 92.2791C999.794 90.0606 1004.45 88.9514 1009.45 88.9514C1017.94 88.9514 1025.2 91.9699 1031.24 98.0067C1037.27 104.044 1040.29 111.307 1040.29 119.797V177.329C1040.29 178.95 1039.68 180.358 1038.47 181.553C1037.25 182.747 1035.83 183.345 1034.21 183.345C1032.51 183.345 1031.06 182.747 1029.86 181.553C1028.67 180.358 1028.07 178.95 1028.07 177.329V119.797C1028.07 114.635 1026.26 110.24 1022.63 106.614C1019 102.988 1014.61 101.174 1009.45 101.174C1004.33 101.174 999.943 102.988 996.295 106.614C992.648 110.24 990.824 114.635 990.824 119.797V177.329C990.824 178.95 990.226 180.358 989.032 181.553C987.837 182.747 986.387 183.345 984.68 183.345L984.67 183.344ZM984.687 211.049C993.177 211.049 1000.44 208.03 1006.48 201.993C1012.51 195.956 1015.53 188.693 1015.53 180.203V122.671C1015.53 121.05 1014.92 119.642 1013.71 118.447C1012.49 117.253 1011.07 116.655 1009.45 116.655C1007.75 116.655 1006.3 117.253 1005.1 118.447C1003.91 119.642 1003.31 121.05 1003.31 122.671V180.203C1003.31 185.365 1001.5 189.76 997.87 193.386C994.243 197.012 989.849 198.826 984.687 198.826C979.567 198.826 975.183 197.012 971.536 193.386C967.888 189.76 966.064 185.365 966.064 180.203V122.671C966.064 121.05 965.467 119.642 964.272 118.447C963.078 117.253 961.627 116.655 959.92 116.655C958.299 116.655 956.891 117.253 955.697 118.447C954.502 119.642 953.905 121.05 953.905 122.671V180.203C953.905 185.365 952.081 189.76 948.433 193.386C944.786 197.012 940.402 198.826 935.282 198.826C930.12 198.826 925.726 197.012 922.099 193.386C918.473 189.76 916.66 185.365 916.66 180.203V122.671C916.66 121.05 916.062 119.642 914.868 118.447C913.673 117.253 912.223 116.655 910.516 116.655C908.895 116.655 907.487 117.253 906.292 118.447C905.098 119.642 904.5 121.05 904.5 122.671V180.203C904.5 185.792 905.876 190.954 908.628 195.69C911.38 200.425 915.113 204.169 919.827 206.921C924.542 209.673 929.693 211.049 935.282 211.049C940.274 211.049 944.935 209.939 949.265 207.721C953.596 205.502 957.147 202.452 959.92 198.569C962.779 202.452 966.373 205.502 970.704 207.721C975.034 209.939 979.695 211.049 984.687 211.049V211.049Z" fill="#185ADB"/>
<defs>
<linearGradient id="paint0_linear_3_2" x1="960" y1="0" x2="960" y2="300" gradientUnits="userSpaceOnUse">
<stop stop-color="#185ADB"/>
<stop offset="0.0001" stop-color="#185ADB"/>
<stop offset="1" stop-color="#185ADB"/>
</linearGradient>
</defs>
</svg>
