<svg width="300" height="300" viewBox="0 0 300 300" fill="none" xmlns="http://www.w3.org/2000/svg">
<rect x="25.909" y="49.7723" width="250.569" height="200.455" fill="white"/>
<path fill-rule="evenodd" clip-rule="evenodd" d="M300 195C300 252.951 252.951 300 195 300H105C47.049 300 0 252.951 0 195V105C0 47.0489 47.049 0 105 0H195C252.951 0 300 47.0489 300 105V195ZM187.005 200.017H186.99C184.431 200.017 182.255 199.121 180.463 197.329C178.671 195.537 177.775 193.425 177.775 190.993V104.696C177.775 96.9523 175.055 90.3607 169.616 84.9212C164.202 79.5076 157.648 76.7879 149.952 76.762C142.256 76.7879 135.702 79.5076 130.288 84.9212C124.849 90.3607 122.129 96.9523 122.129 104.696V190.993C122.129 193.425 121.233 195.537 119.441 197.329C117.649 199.121 115.473 200.017 112.914 200.017H112.692C110.26 200.017 108.148 199.121 106.356 197.329C104.564 195.537 103.668 193.425 103.668 190.993V104.696C103.668 96.9523 100.933 90.3607 95.461 84.9212C89.9894 79.4815 83.414 76.7617 75.7345 76.7617C67.991 76.7617 61.3995 79.4815 55.96 84.9212C50.5203 90.3607 47.8005 96.9523 47.8005 104.696V190.993C47.8005 193.425 46.9047 195.537 45.1127 197.329C43.3208 199.121 41.1451 200.017 38.5851 200.017C36.1534 200.017 34.0415 199.121 32.2496 197.329C30.4578 195.537 29.5619 193.425 29.5619 190.993V104.696C29.5619 96.3123 31.6257 88.5688 35.7535 81.4654C39.8811 74.362 45.4806 68.7463 52.5523 64.6186C59.6237 60.4909 67.3511 58.427 75.7345 58.427C83.2219 58.427 90.2134 60.091 96.7089 63.4187C103.204 66.7464 108.532 71.3222 112.692 77.1457C116.979 71.3222 122.371 66.7464 128.867 63.4187C135.362 60.091 142.354 58.427 149.841 58.427H150.063C154.298 58.427 158.374 58.9594 162.292 60.024L162.426 60.0607C163.483 60.3501 164.523 60.678 165.548 61.0444C167.415 61.7091 169.245 62.5006 171.037 63.4187C177.477 66.7179 182.769 71.2436 186.912 76.9954L187.024 77.141C191.311 71.3193 196.701 66.7454 203.195 63.4187C209.691 60.091 216.682 58.427 224.169 58.427C236.905 58.427 247.8 62.9548 256.855 72.0101C265.91 81.0655 270.438 91.9607 270.438 104.696V190.993C270.438 193.425 269.526 195.537 267.702 197.329C265.879 199.121 263.751 200.017 261.319 200.017C258.759 200.017 256.583 199.121 254.791 197.329C252.999 195.537 252.103 193.425 252.103 190.993V104.696C252.103 96.9523 249.384 90.3607 243.944 84.9212C238.504 79.4815 231.913 76.7617 224.169 76.7617C216.49 76.7617 209.915 79.4815 204.443 84.9212C198.971 90.3607 196.236 96.9523 196.236 104.696V190.993C196.236 193.425 195.34 195.537 193.548 197.329C191.756 199.121 189.58 200.017 187.02 200.017L187.005 200.017ZM187.03 241.573C199.765 241.573 210.66 237.045 219.716 227.99C228.771 218.935 233.299 208.039 233.299 195.304V109.007C233.299 106.575 232.387 104.463 230.563 102.671C228.739 100.879 226.611 99.9832 224.179 99.9832C221.619 99.9832 219.444 100.879 217.652 102.671C215.86 104.463 214.964 106.575 214.964 109.007V195.304C214.964 203.048 212.244 209.639 206.804 215.079C201.365 220.518 194.773 223.238 187.03 223.238C179.35 223.238 172.775 220.518 167.303 215.079C161.832 209.639 159.096 203.048 159.096 195.304V109.007C159.096 106.575 158.2 104.463 156.408 102.671C154.616 100.879 152.44 99.9832 149.881 99.9832C147.449 99.9832 145.337 100.879 143.545 102.671C141.753 104.463 140.857 106.575 140.857 109.007V195.304C140.857 203.048 138.122 209.639 132.65 215.079C127.178 220.518 120.603 223.238 112.923 223.238C105.18 223.238 98.5884 220.518 93.1488 215.079C87.7093 209.639 84.9894 203.048 84.9894 195.304V109.007C84.9894 106.575 84.0934 104.463 82.3016 102.671C80.5097 100.879 78.3338 99.9832 75.7741 99.9832C73.3422 99.9832 71.2304 100.879 69.4386 102.671C67.6467 104.463 66.7507 106.575 66.7507 109.007V195.304C66.7507 203.688 68.8146 211.431 72.9422 218.535C77.07 225.638 82.6696 231.254 89.741 235.381C96.8125 239.509 104.54 241.573 112.923 241.573C120.411 241.573 127.402 239.909 133.898 236.581C140.393 233.254 145.721 228.678 149.881 222.854C154.168 228.678 159.56 233.254 166.056 236.581C172.551 239.909 179.543 241.573 187.03 241.573V241.573Z" fill="#185ADB"/>
</svg>
