<?xml version="1.0" encoding="UTF-8" standalone="no"?>
<svg
   xmlns:dc="http://purl.org/dc/elements/1.1/"
   xmlns:cc="http://creativecommons.org/ns#"
   xmlns:rdf="http://www.w3.org/1999/02/22-rdf-syntax-ns#"
   xmlns:svg="http://www.w3.org/2000/svg"
   xmlns="http://www.w3.org/2000/svg"
   xmlns:sodipodi="http://sodipodi.sourceforge.net/DTD/sodipodi-0.dtd"
   xmlns:inkscape="http://www.inkscape.org/namespaces/inkscape"
   width="100%"
   height="100%"
   viewBox="0 0 2250 2250"
   version="1.1"
   xml:space="preserve"
   style="fill-rule:evenodd;clip-rule:evenodd;stroke-linejoin:round;stroke-miterlimit:2;"
   id="svg865"
   sodipodi:docname="mwmbl_test_2.svg"
   inkscape:version="0.92.3 (2405546, 2018-03-11)"><metadata
     id="metadata871"><rdf:RDF><cc:Work
         rdf:about=""><dc:format>image/svg+xml</dc:format><dc:type
           rdf:resource="http://purl.org/dc/dcmitype/StillImage" /><dc:title></dc:title></cc:Work></rdf:RDF></metadata><defs
     id="defs869" /><sodipodi:namedview
     pagecolor="#ffffff"
     bordercolor="#666666"
     borderopacity="1"
     objecttolerance="10"
     gridtolerance="10"
     guidetolerance="10"
     inkscape:pageopacity="0"
     inkscape:pageshadow="2"
     inkscape:window-width="3838"
     inkscape:window-height="2118"
     id="namedview867"
     showgrid="false"
     inkscape:zoom="0.86133333"
     inkscape:cx="1125"
     inkscape:cy="1125"
     inkscape:window-x="1920"
     inkscape:window-y="20"
     inkscape:window-maximized="1"
     inkscape:current-layer="svg865" /><path
     d="m 2067.85,1407.856 c 0,364.262 -295.735,659.997 -659.997,659.997 H 842.141 c -364.262,0 -659.997,-295.735 -659.997,-659.997 V 842.144 c 0,-364.262 295.735,-659.997 659.997,-659.997 h 565.712 c 364.262,0 659.997,295.735 659.997,659.997 z m -710.249,31.533 -0.094,0 c -16.09,0 -29.767,-5.632 -41.03,-16.895 -11.263,-11.263 -16.895,-24.538 -16.895,-39.823 V 840.231 c 0,-48.672 -17.096,-90.105 -51.287,-124.296 -34.028,-34.028 -75.227,-51.123 -123.6,-51.286 -48.373,0.163 -89.572,17.258 -123.599,51.286 -34.192,34.191 -51.288,75.624 -51.288,124.296 v 542.441 c 0,15.285 -5.631,28.56 -16.894,39.823 -11.263,11.263 -24.94,16.895 -41.03,16.895 h -1.395 c -15.285,0 -28.56,-5.632 -39.823,-16.895 -11.263,-11.263 -16.895,-24.538 -16.895,-39.823 V 840.231 c 0,-48.672 -17.196,-90.105 -51.589,-124.296 -34.393,-34.192 -75.724,-51.288 -123.995,-51.288 -48.673,0 -90.105,17.096 -124.296,51.288 -34.192,34.191 -51.288,75.624 -51.288,124.296 v 542.441 c 0,15.285 -5.631,28.56 -16.895,39.823 -11.263,11.263 -24.939,16.895 -41.03,16.895 -15.285,0 -28.56,-5.632 -39.823,-16.895 -11.263,-11.263 -16.894,-24.538 -16.894,-39.823 V 840.231 c 0,-52.695 12.972,-101.368 38.918,-146.018 25.945,-44.65 61.142,-79.948 105.592,-105.894 44.449,-25.945 93.021,-38.918 145.716,-38.918 47.064,0 91.01,10.459 131.839,31.376 40.829,20.917 74.317,49.679 100.463,86.284 26.951,-36.605 60.841,-65.367 101.67,-86.284 40.829,-20.917 84.775,-31.376 131.839,-31.376 h 1.395 c 26.619,0 52.241,3.346 76.865,10.038 l 0.846,0.231 c 6.64,1.819 13.18,3.88 19.622,6.183 11.739,4.178 23.241,9.153 34.505,14.924 40.478,20.738 73.74,49.185 99.786,85.339 l 0.699,0.915 c 26.95,-36.593 60.832,-65.343 101.648,-86.254 40.829,-20.917 84.776,-31.376 131.839,-31.376 80.049,0 148.533,28.46 205.452,85.379 56.919,56.919 85.378,125.403 85.378,205.451 v 542.441 c 0,15.285 -5.732,28.56 -17.196,39.823 -11.464,11.263 -24.839,16.895 -40.125,16.895 -16.09,0 -29.767,-5.632 -41.03,-16.895 -11.263,-11.263 -16.895,-24.538 -16.895,-39.823 V 840.231 c 0,-48.672 -17.095,-90.105 -51.287,-124.296 -34.192,-34.192 -75.624,-51.288 -124.297,-51.288 -48.27,0 -89.602,17.096 -123.995,51.288 -34.392,34.191 -51.589,75.624 -51.589,124.296 v 542.441 c 0,15.285 -5.631,28.56 -16.894,39.823 -11.264,11.263 -24.94,16.895 -41.03,16.895 z m 0.155,261.21 c 80.048,0 148.532,-28.46 205.451,-85.379 56.919,-56.919 85.379,-125.403 85.379,-205.451 V 867.328 c 0,-15.285 -5.732,-28.56 -17.197,-39.823 -11.464,-11.263 -24.839,-16.895 -40.124,-16.895 -16.091,0 -29.767,5.632 -41.03,16.895 -11.264,11.263 -16.895,24.538 -16.895,39.823 v 542.441 c 0,48.672 -17.096,90.105 -51.288,124.296 -34.191,34.192 -75.623,51.288 -124.296,51.288 -48.271,0 -89.602,-17.096 -123.995,-51.288 -34.393,-34.191 -51.589,-75.624 -51.589,-124.296 V 867.328 c 0,-15.285 -5.632,-28.56 -16.895,-39.823 -11.263,-11.263 -24.94,-16.895 -41.03,-16.895 -15.286,0 -28.56,5.632 -39.823,16.895 -11.263,11.263 -16.895,24.538 -16.895,39.823 v 542.441 c 0,48.672 -17.196,90.105 -51.589,124.296 -34.393,34.192 -75.725,51.288 -123.995,51.288 -48.673,0 -90.105,-17.096 -124.297,-51.288 -34.191,-34.191 -51.287,-75.624 -51.287,-124.296 V 867.328 c 0,-15.285 -5.632,-28.56 -16.895,-39.823 -11.263,-11.263 -24.94,-16.895 -41.03,-16.895 -15.286,0 -28.56,5.632 -39.823,16.895 -11.263,11.263 -16.895,24.538 -16.895,39.823 v 542.441 c 0,52.695 12.973,101.368 38.918,146.018 25.946,44.65 61.143,79.948 105.592,105.894 44.449,25.945 93.022,38.918 145.717,38.918 47.064,0 91.01,-10.459 131.839,-31.376 40.829,-20.917 74.316,-49.679 100.463,-86.284 26.951,36.605 60.841,65.367 101.67,86.284 40.829,20.917 84.775,31.376 131.839,31.376 z"
     id="path863"
     style="fill:#185adb;fill-opacity:1"
     inkscape:connector-curvature="0" /></svg>