<?xml version="1.0" encoding="UTF-8" standalone="no"?><!DOCTYPE svg PUBLIC "-//W3C//DTD SVG 1.1//EN" "http://www.w3.org/Graphics/SVG/1.1/DTD/svg11.dtd"><svg width="100%" height="100%" viewBox="0 0 9375 9375" version="1.1" xmlns="http://www.w3.org/2000/svg" xmlns:xlink="http://www.w3.org/1999/xlink" xml:space="preserve" xmlns:serif="http://www.serif.com/" style="fill-rule:evenodd;clip-rule:evenodd;stroke-linejoin:round;stroke-miterlimit:2;"><rect x="0" y="0" width="9375" height="9375" style="fill:#185adb;"/><rect x="1447.44" y="2195.95" width="6491.31" height="4958.98" style="fill:#fff;"/><path id="path863" d="M8616.04,5866.07c-0,1517.76 -1232.23,2749.99 -2749.99,2749.99l-2357.13,0c-1517.76,0 -2749.99,-1232.23 -2749.99,-2749.99l0,-2357.13c0,-1517.76 1232.23,-2749.99 2749.99,-2749.99l2357.13,-0c1517.76,-0 2749.99,1232.23 2749.99,2749.99l-0,2357.13Zm-2959.37,131.387l-0.392,0c-67.041,0 -124.029,-23.466 -170.958,-70.396c-46.929,-46.929 -70.396,-102.241 -70.396,-165.929l0,-2260.17c0,-202.8 -71.233,-375.437 -213.696,-517.9c-141.783,-141.783 -313.446,-213.012 -515,-213.691c-201.554,0.679 -373.216,71.908 -514.996,213.691c-142.466,142.463 -213.7,315.101 -213.7,517.901l0,2260.17c0,63.688 -23.462,119 -70.391,165.93c-46.93,46.929 -103.917,70.395 -170.959,70.395l-5.812,0c-63.688,0 -119,-23.466 -165.929,-70.395c-46.93,-46.93 -70.396,-102.242 -70.396,-165.93l-0,-2260.17c-0,-202.8 -71.65,-375.438 -214.954,-517.9c-143.304,-142.467 -315.517,-213.7 -516.646,-213.7c-202.804,-0.001 -375.438,71.233 -517.9,213.7c-142.467,142.462 -213.7,315.1 -213.7,517.9l-0,2260.17c-0,63.688 -23.463,119 -70.396,165.93c-46.929,46.929 -103.912,70.395 -170.958,70.395c-63.688,0 -119,-23.466 -165.929,-70.395c-46.93,-46.93 -70.392,-102.242 -70.392,-165.93l-0,-2260.17c-0,-219.563 54.05,-422.367 162.158,-608.409c108.104,-186.041 254.759,-333.116 439.967,-441.225c185.204,-108.104 387.587,-162.158 607.15,-162.158c196.1,-0 379.208,43.579 549.329,130.733c170.121,87.154 309.654,206.996 418.596,359.517c112.296,-152.521 253.504,-272.363 423.625,-359.517c170.121,-87.154 353.229,-130.733 549.329,-130.733l5.813,-0c110.912,-0 217.67,13.942 320.27,41.825l3.525,0.962c27.667,7.58 54.917,16.167 81.759,25.763c48.912,17.408 96.837,38.137 143.771,62.183c168.658,86.409 307.25,204.938 415.775,355.579l2.912,3.813c112.292,-152.471 253.467,-272.263 423.533,-359.392c170.121,-87.154 353.234,-130.733 549.33,-130.733c333.537,-0 618.887,118.583 856.05,355.746c237.162,237.162 355.741,522.512 355.741,856.046l0,2260.17c0,63.688 -23.883,119 -71.65,165.93c-47.766,46.929 -103.496,70.395 -167.187,70.395c-67.042,0 -124.029,-23.466 -170.959,-70.395c-46.929,-46.93 -70.395,-102.242 -70.395,-165.93l-0,-2260.17c-0,-202.8 -71.23,-375.438 -213.696,-517.9c-142.467,-142.467 -315.1,-213.7 -517.904,-213.7c-201.125,-0.001 -373.342,71.233 -516.646,213.7c-143.3,142.462 -214.954,315.1 -214.954,517.9l-0,2260.17c-0,63.688 -23.463,119 -70.392,165.93c-46.933,46.929 -103.917,70.395 -170.958,70.395l-0.392,-0.004Zm0.646,1088.38c333.533,0 618.883,-118.583 856.046,-355.746c237.162,-237.162 355.745,-522.512 355.745,-856.046l0,-2260.17c0,-63.688 -23.883,-119 -71.654,-165.93c-47.766,-46.929 -103.496,-70.395 -167.183,-70.395c-67.046,-0 -124.029,23.466 -170.958,70.395c-46.934,46.93 -70.396,102.242 -70.396,165.93l-0,2260.17c-0,202.8 -71.234,375.437 -213.7,517.9c-142.463,142.466 -315.096,213.7 -517.9,213.7c-201.13,-0 -373.342,-71.234 -516.646,-213.7c-143.304,-142.463 -214.954,-315.1 -214.954,-517.9l-0,-2260.17c-0,-63.688 -23.467,-119 -70.396,-165.93c-46.929,-46.929 -103.917,-70.395 -170.959,-70.395c-63.691,-0 -119,23.466 -165.929,70.395c-46.929,46.93 -70.396,102.242 -70.396,165.93l0,2260.17c0,202.801 -71.65,375.438 -214.954,517.901c-143.304,142.466 -315.521,213.7 -516.646,213.7c-202.804,-0 -375.437,-71.234 -517.904,-213.7c-142.462,-142.463 -213.696,-315.1 -213.696,-517.9l0,-2260.17c0,-63.688 -23.466,-119 -70.395,-165.93c-46.93,-46.929 -103.917,-70.395 -170.959,-70.395c-63.691,-0 -119,23.466 -165.929,70.395c-46.929,46.93 -70.396,102.242 -70.396,165.93l0,2260.17c0,219.563 54.054,422.367 162.159,608.409c108.108,186.042 254.762,333.117 439.966,441.225c185.204,108.104 387.592,162.158 607.154,162.158c196.1,0 379.209,-43.579 549.33,-130.733c170.12,-87.154 309.65,-206.996 418.595,-359.517c112.296,152.521 253.505,272.363 423.625,359.517c170.121,87.154 353.23,130.733 549.33,130.733Z" style="fill:#185adb;"/></svg>