<?xml version="1.0" encoding="UTF-8" standalone="no"?>
<!DOCTYPE svg PUBLIC "-//W3C//DTD SVG 1.1//EN" "http://www.w3.org/Graphics/SVG/1.1/DTD/svg11.dtd">
<svg width="100%" height="100%" viewBox="0 0 9375 9375" version="1.1" xmlns="http://www.w3.org/2000/svg" xmlns:xlink="http://www.w3.org/1999/xlink" xml:space="preserve" xmlns:serif="http://www.serif.com/" style="fill-rule:evenodd;clip-rule:evenodd;stroke-linecap:round;stroke-linejoin:round;stroke-miterlimit:1.5;">
<style>
		path {
			fill: #000;
		}
		@media ( prefers-color-scheme: dark ) {
			path {
				fill: #fff !important;
			}
		}
	</style>
<path d="M6128.72,8251.56c495.65,0 919.697,-176.222 1272.13,-528.659c352.437,-352.438 528.659,-776.484 528.659,-1272.13l-0,-3358.75c-0,-94.644 -35.492,-176.841 -106.482,-246.581c-70.985,-69.739 -153.801,-104.612 -248.445,-104.612c-99.634,-0 -184.314,34.873 -254.054,104.612c-69.746,69.74 -104.612,151.937 -104.612,246.581l-0,3358.75c-0,301.373 -105.857,557.923 -317.571,769.63c-211.708,211.714 -468.251,317.571 -769.63,317.571c-298.89,0 -554.808,-105.857 -767.766,-317.571c-212.958,-211.707 -319.434,-468.257 -319.434,-769.63l-0,-3358.75c-0,-94.644 -34.873,-176.841 -104.613,-246.581c-69.739,-69.739 -154.426,-104.612 -254.054,-104.612c-94.649,-0 -176.841,34.873 -246.58,104.612c-69.74,69.74 -104.613,151.937 -104.613,246.581l0,3358.75c0,301.373 -106.476,557.923 -319.434,769.63c-212.959,211.714 -468.883,317.571 -767.766,317.571c-301.379,0 -557.923,-105.857 -769.636,-317.571c-211.708,-211.707 -317.565,-468.257 -317.565,-769.63l0,-3358.75c0,-94.644 -34.873,-176.841 -104.612,-246.581c-69.74,-69.739 -154.427,-104.612 -254.054,-104.612c-94.65,-0 -176.841,34.873 -246.581,104.612c-69.739,69.74 -104.612,151.937 -104.612,246.581l-0,3358.75c-0,326.283 80.327,627.662 240.976,904.131c160.656,276.469 378.593,495.031 653.817,655.686c275.224,160.649 575.984,240.977 902.267,240.977c291.416,0 563.525,-64.761 816.335,-194.277c252.81,-129.517 460.158,-307.608 622.058,-534.263c166.878,226.655 376.722,404.746 629.532,534.263c252.809,129.516 524.919,194.277 816.335,194.277Zm-0.96,-1617.39l-0.582,-0c-99.627,-0 -184.314,-34.873 -254.054,-104.612c-69.739,-69.74 -104.612,-151.938 -104.612,-246.581l-0,-3358.74c-0,-301.373 -105.857,-557.923 -317.565,-769.63c-210.698,-210.699 -465.799,-316.549 -765.32,-317.559c-299.521,1.01 -554.622,106.86 -765.314,317.559c-211.714,211.707 -317.571,468.257 -317.571,769.63l0,3358.75c0,94.644 -34.866,176.841 -104.606,246.581c-69.739,69.739 -154.426,104.612 -254.054,104.612l-8.638,0c-94.643,0 -176.841,-34.873 -246.58,-104.612c-69.74,-69.74 -104.613,-151.937 -104.613,-246.581l0,-3358.75c0,-301.373 -106.476,-557.923 -319.434,-769.63c-212.959,-211.714 -468.876,-317.571 -767.766,-317.571c-301.379,-0 -557.922,105.857 -769.63,317.571c-211.714,211.707 -317.571,468.257 -317.571,769.63l0,3358.75c0,94.644 -34.867,176.841 -104.612,246.581c-69.74,69.739 -154.42,104.612 -254.054,104.612c-94.644,0 -176.841,-34.873 -246.581,-104.612c-69.739,-69.74 -104.606,-151.937 -104.606,-246.581l0,-3358.75c0,-326.283 80.321,-627.662 240.977,-904.131c160.649,-276.469 378.586,-495.031 653.816,-655.686c275.224,-160.649 575.978,-240.977 902.261,-240.977c291.416,-0 563.526,64.761 816.335,194.277c252.81,129.517 460.164,307.608 622.058,534.263c166.878,-226.655 376.722,-404.746 629.532,-534.263c252.809,-129.516 524.919,-194.277 816.335,-194.277l8.638,-0c164.822,-0 323.472,20.718 475.941,62.154l5.239,1.431c41.114,11.263 81.609,24.024 121.497,38.284c72.687,25.87 143.907,56.675 213.652,92.408c250.636,128.408 456.592,304.549 617.866,528.412l4.328,5.665c166.872,-226.58 376.667,-404.598 629.396,-534.077c252.809,-129.516 524.925,-194.277 816.335,-194.277c495.657,-0 919.704,176.222 1272.14,528.659c352.437,352.438 528.653,776.484 528.653,1272.13l0,3358.75c0,94.644 -35.492,176.841 -106.476,246.581c-70.984,69.739 -153.801,104.612 -248.451,104.612c-99.627,0 -184.314,-34.873 -254.054,-104.612c-69.739,-69.74 -104.612,-151.937 -104.612,-246.581l-0,-3358.75c-0,-301.373 -105.851,-557.923 -317.565,-769.63c-211.713,-211.714 -468.257,-317.571 -769.636,-317.571c-298.883,-0 -554.807,105.857 -767.766,317.571c-212.952,211.707 -319.434,468.257 -319.434,769.63l-0,3358.75c-0,94.644 -34.867,176.841 -104.606,246.581c-69.746,69.739 -154.427,104.612 -254.055,104.612l-0.582,-0.006Z" style="stroke:#185ADB;stroke-width:4.17px;"/></svg>
